<svg width="18" height="21" viewBox="0 0 18 21" fill="none" xmlns="http://www.w3.org/2000/svg">
<path d="M13.6469 6.79674L13.1692 6.9442L13.278 7.29674H13.6469V6.79674ZM13.0099 5.45796L12.5928 5.73388L12.5978 5.74123L13.0099 5.45796ZM12.0496 4.43311L11.7454 4.82992L11.7486 4.83232L12.0496 4.43311ZM10.7755 3.79603L10.6284 4.27395L10.6341 4.27562L10.7755 3.79603ZM6.49139 4.34078L6.76193 4.76126L6.76193 4.76126L6.49139 4.34078ZM4.6171 6.59362L4.16279 6.3848L4.16221 6.38607L4.6171 6.59362ZM4.6171 13.823L4.16172 14.0295L4.6171 13.823ZM6.49139 16.0851L6.22003 16.5051L6.22232 16.5065L6.49139 16.0851ZM11.7726 16.2975L11.5414 15.8542L11.5398 15.855L11.7726 16.2975ZM13.4069 14.7278L13.8425 14.9734L13.8434 14.9717L13.4069 14.7278ZM13.9793 12.3273L14.0558 11.8332L13.4793 11.7439V12.3273H13.9793ZM14.7549 12.4473V12.9473L14.8314 11.9532L14.7549 12.4473ZM9.62136 12.4473H9.12136V12.9473H9.62136V12.4473ZM9.62136 9.76975V9.26975H9.12136V9.76975H9.62136ZM17.2939 9.76975H17.7939V9.26975H17.2939V9.76975ZM16.2599 16.2421L16.6917 16.494H16.6917L16.2599 16.2421ZM13.4161 18.975L13.6487 19.4176L13.6505 19.4167L13.4161 18.975ZM4.6725 18.7534L4.41495 19.182L4.41732 19.1834L4.6725 18.7534ZM1.59792 15.4019L1.15146 15.627L1.15262 15.6292L1.59792 15.4019ZM1.14551 6.1412L0.675677 5.97013L0.67491 5.97227L1.14551 6.1412ZM2.97363 3.08509L3.33907 3.42635L3.34032 3.42501L2.97363 3.08509ZM5.72505 1.16464L5.91679 1.62642L5.91908 1.62546L5.72505 1.16464ZM12.0866 0.961514L11.9255 1.43489L11.9284 1.43586L12.0866 0.961514ZM14.4964 2.25413L14.1844 2.6449L14.1861 2.64622L14.4964 2.25413ZM16.2414 4.24845L16.6716 3.99373L16.2414 4.24845ZM17.137 6.79674V7.29674H17.7189L17.6313 6.72145L17.137 6.79674ZM13.6469 6.79674L14.1247 6.64928C13.9572 6.10677 13.7239 5.61395 13.4219 5.1747L13.0099 5.45796L12.5978 5.74123C12.8375 6.08986 13.0288 6.48956 13.1692 6.9442L13.6469 6.79674ZM13.0099 5.45796L13.4269 5.1821C13.1315 4.73556 12.7724 4.35195 12.3507 4.03389L12.0496 4.43311L11.7486 4.83232C12.0778 5.08054 12.3589 5.38017 12.5928 5.73383L13.0099 5.45796ZM12.0496 4.43311L12.3538 4.0363C11.9322 3.71306 11.4514 3.47406 10.9169 3.31645L10.7755 3.79603L10.6341 4.27562C11.0598 4.40114 11.4284 4.58686 11.7454 4.82991L12.0496 4.43311ZM10.7755 3.79603L10.9225 3.31814C10.3891 3.15403 9.81576 3.07444 9.20588 3.07444V3.57444V4.07444C9.72857 4.07444 10.2016 4.14258 10.6284 4.27392L10.7755 3.79603ZM9.20588 3.57444V3.07444C8.10189 3.07444 7.10171 3.35354 6.22085 3.92029L6.49139 4.34078L6.76193 4.76126C7.46914 4.30624 8.27862 4.07444 9.20588 4.07444V3.57444ZM6.49139 4.34078L6.22085 3.92029C5.33479 4.49039 4.65179 5.3209 4.16279 6.3848L4.6171 6.59362L5.07141 6.80243C5.4934 5.88432 6.05992 5.21294 6.76193 4.76126L6.49139 4.34078ZM4.6171 6.59362L4.16221 6.38607C3.67549 7.45286 3.44309 8.72822 3.44309 10.1945H3.94309H4.44309C4.44309 8.82928 4.66004 7.70407 5.07199 6.80116L4.6171 6.59362ZM3.94309 10.1945H3.44309C3.44309 11.6725 3.67531 12.9567 4.16172 14.0295L4.6171 13.823L5.07248 13.6165C4.66021 12.7073 4.44309 11.5725 4.44309 10.1945H3.94309ZM4.6171 13.823L4.16172 14.0295C4.64488 15.0951 5.3283 15.9289 6.22003 16.5051L6.49139 16.0851L6.76275 15.6651C6.0541 15.2072 5.48799 14.533 5.07248 13.6165L4.6171 13.823ZM6.49139 16.0851L6.22232 16.5065C7.11193 17.0745 8.13702 17.3514 9.27974 17.3514V16.8514V16.3514C8.30503 16.3514 7.47123 16.1175 6.76046 15.6637L6.49139 16.0851ZM9.27974 16.8514V17.3514C10.3042 17.3514 11.2184 17.1542 12.0055 16.7399L11.7726 16.2975L11.5398 15.855C10.9235 16.1793 10.1758 16.3514 9.27974 16.3514V16.8514ZM11.7726 16.2975L12.0039 16.7407C12.7951 16.3279 13.4119 15.7372 13.8424 14.9734L13.4069 14.7278L12.9713 14.4823C12.6385 15.0727 12.1659 15.5283 11.5414 15.8542L11.7726 16.2975ZM13.4069 14.7278L13.8434 14.9717C14.2733 14.202 14.4793 13.315 14.4793 12.3273H13.9793H13.4793C13.4793 13.1738 13.3037 13.8872 12.9704 14.484L13.4069 14.7278ZM13.9793 12.3273L13.9028 12.8214L14.6784 12.9414L14.7549 12.4473L14.8314 11.9532L14.0558 11.8332L13.9793 12.3273ZM14.7549 12.4473V11.9473H9.62136V12.4473V12.9473H14.7549V12.4473ZM9.62136 12.4473H10.1214V9.76975H9.62136H9.12136V12.4473H9.62136ZM9.62136 9.76975V10.2698H17.2939V9.76975V9.26975H9.62136V9.76975ZM17.2939 9.76975H16.7939V12.0411H17.2939H17.7939V9.76975H17.2939ZM17.2939 12.0411H16.7939C16.7939 13.5877 16.4652 14.8977 15.828 15.9901L16.2599 16.2421L16.6917 16.494C17.4333 15.2227 17.7939 13.7321 17.7939 12.0411H17.2939ZM16.2599 16.2421L15.828 15.9901C15.1854 17.0917 14.3058 17.9369 13.1817 18.5333L13.4161 18.975L13.6505 19.4167C14.9393 18.7328 15.9555 17.7561 16.6917 16.494L16.2599 16.2421ZM13.4161 18.975L13.1835 18.5324C12.0587 19.1235 10.7557 19.426 9.26128 19.426V19.926V20.426C10.8937 20.426 12.3606 20.0945 13.6487 19.4176L13.4161 18.975ZM9.26128 19.926V19.426C7.59656 19.426 6.15754 19.0533 4.92767 18.3234L4.6725 18.7534L4.41732 19.1834C5.82192 20.017 7.44209 20.426 9.26128 20.426V19.926ZM4.6725 18.7534L4.93004 18.3248C3.70416 17.5882 2.74207 16.543 2.04323 15.1745L1.59792 15.4019L1.15262 15.6292C1.93105 17.1537 3.01868 18.3429 4.41495 19.182L4.6725 18.7534ZM1.59792 15.4019L2.04438 15.1767C1.35417 13.8079 0.999201 12.1649 0.999201 10.2314H0.499201H-0.000798941C-0.000798941 12.2865 0.376715 14.0905 1.15147 15.627L1.59792 15.4019ZM0.499201 10.2314H0.999201C0.999201 8.75144 1.2081 7.44673 1.61611 6.31013L1.14551 6.1412L0.67491 5.97227C0.221176 7.23624 -0.000798941 8.65833 -0.000798941 10.2314H0.499201ZM1.14551 6.1412L1.61533 6.31227C2.03201 5.16786 2.60825 4.20897 3.33907 3.42635L2.97363 3.08509L2.60819 2.74384C1.77557 3.63547 1.13305 4.71397 0.675681 5.97014L1.14551 6.1412ZM2.97363 3.08509L3.34032 3.42501C4.07361 2.63397 4.93124 2.03562 5.91679 1.62642L5.72505 1.16464L5.53332 0.702861C4.41375 1.16771 3.4371 1.84966 2.60695 2.74518L2.97363 3.08509ZM5.72505 1.16464L5.91908 1.62546C6.90526 1.21022 7.98353 0.999866 9.15971 0.999866V0.499866V-0.000133991C7.86146 -0.000133991 6.64996 0.23269 5.53102 0.703821L5.72505 1.16464ZM9.15971 0.499866V0.999866C10.1565 0.999866 11.0773 1.14634 11.9256 1.43488L12.0866 0.961514L12.2476 0.488147C11.2862 0.161153 10.2557 -0.000133991 9.15971 -0.000133991V0.499866ZM12.0866 0.961514L11.9284 1.43586C12.781 1.72004 13.5315 2.12368 14.1844 2.6449L14.4964 2.25413L14.8083 1.86336C14.0578 1.26431 13.2018 0.806211 12.2447 0.487172L12.0866 0.961514ZM14.4964 2.25413L14.1861 2.64622C14.8463 3.16868 15.3872 3.78702 15.8111 4.50316L16.2414 4.24845L16.6716 3.99373C16.1846 3.17104 15.5621 2.45984 14.8066 1.86204L14.4964 2.25413ZM16.2414 4.24845L15.8111 4.50316C16.2323 5.21461 16.5103 6.00263 16.6427 6.87203L17.137 6.79674L17.6313 6.72145C17.4806 5.73195 17.1615 4.82111 16.6716 3.99373L16.2414 4.24845ZM17.137 6.79674V6.29674H13.6469V6.79674V7.29674H17.137V6.79674Z" fill="url(#paint0_linear_257_2424)"/>
<defs>
<linearGradient id="paint0_linear_257_2424" x1="0.414961" y1="-54.6627" x2="25.5653" y2="-53.4772" gradientUnits="userSpaceOnUse">
<stop stop-color="#3BBCFF"/>
<stop offset="1" stop-color="#936DFF"/>
</linearGradient>
</defs>
</svg>
