<svg width="34" height="18" viewBox="0 0 34 18" fill="none" xmlns="http://www.w3.org/2000/svg">
<path d="M32.1891 13.8065C32.3904 13.4464 32.7802 13.1113 32.7928 12.7262C33.0304 10.3514 33.2679 7.9766 33.3113 5.61906C33.3294 4.03161 32.5497 3.54168 31.2473 4.09976C29.3287 4.963 27.4045 5.86846 25.518 6.77891C26.3746 8.13839 27.2857 8.21602 30.5654 6.93138C30.3418 7.46038 30.2482 7.87767 30.047 8.23776C26.8679 13.4029 19.0873 17.6582 12.2512 13.6166C9.40058 11.9502 6.69664 10.0455 4.55725 7.35602C3.10956 5.53159 1.91619 3.52597 1.43689 1.05628C1.36842 0.703463 1.13785 0.415129 0.924053 0.000111348C-0.207831 1.01045 -0.132373 2.18059 0.267277 3.22177C0.810857 4.62576 1.46763 6.04472 2.30326 7.27252C5.55497 11.9998 9.86031 15.1478 15.0251 16.7338C20.1898 18.3198 27.016 15.1842 30.2817 9.94462C30.7219 9.22944 31.1299 8.46704 31.7168 7.51348C32.2297 9.7298 31.19 11.7836 31.7797 13.7093C31.8552 13.7193 32.0438 13.7443 32.1891 13.8065Z" fill="#0B63E5"/>
</svg>
