<svg width="34" height="18" viewBox="0 0 34 18" fill="none" xmlns="http://www.w3.org/2000/svg">
<path d="M32.1891 3.34026C32.3904 3.70034 32.7802 4.03546 32.7928 4.42051C33.0304 6.79532 33.2679 9.17012 33.3113 11.5277C33.3294 13.1151 32.5497 13.605 31.2473 13.047C29.3287 12.1837 27.4045 11.2783 25.518 10.3678C26.3746 9.00834 27.2857 8.93071 30.5654 10.2153C30.3418 9.68635 30.2482 9.26905 30.047 8.90897C26.8679 3.74382 19.0873 -0.511459 12.2512 3.5301C9.40058 5.1965 6.69664 7.10128 4.55725 9.79071C3.10956 11.6151 1.91619 13.6208 1.43689 16.0905C1.36842 16.4433 1.13785 16.7316 0.924053 17.1466C-0.207831 16.1363 -0.132373 14.9661 0.267277 13.925C0.810857 12.521 1.46763 11.102 2.30326 9.87421C5.55497 5.14692 9.86031 1.99892 15.0251 0.412946C20.1898 -1.17303 27.016 1.96249 30.2817 7.20211C30.7219 7.91728 31.1299 8.67968 31.7168 9.63325C32.2297 7.41693 31.19 5.36314 31.7797 3.43743C31.8552 3.42744 32.0438 3.40246 32.1891 3.34026Z" fill="#0B63E5"/>
</svg>
