<svg width="49" height="49" viewBox="0 0 49 49" fill="none" xmlns="http://www.w3.org/2000/svg">
<path d="M0.5 24.5C0.5 11.2452 11.2452 0.5 24.5 0.5C37.7548 0.5 48.5 11.2452 48.5 24.5C48.5 37.7548 37.7548 48.5 24.5 48.5C11.2452 48.5 0.5 37.7548 0.5 24.5Z" fill="#EEF7FF"/>
<path d="M0.5 24.5C0.5 11.2452 11.2452 0.5 24.5 0.5C37.7548 0.5 48.5 11.2452 48.5 24.5C48.5 37.7548 37.7548 48.5 24.5 48.5C11.2452 48.5 0.5 37.7548 0.5 24.5Z" stroke="url(#paint0_radial_257_2301)"/>
<path d="M26.3082 15.3512C25.7737 15.2599 25.2263 15.2599 24.6918 15.3512C24.0863 15.4547 23.5166 15.7133 22.6327 16.1145L15.9941 19.1263C15.5004 19.3503 15.0847 19.5389 14.7747 19.7137C14.4739 19.8832 14.13 20.1139 13.9401 20.485C13.6866 20.9802 13.6866 21.5614 13.9401 22.0566C14.13 22.4277 14.4739 22.6584 14.7747 22.8279C15.0847 23.0028 15.5004 23.1913 15.9941 23.4153L22.6327 26.4271C23.5166 26.8283 24.0863 27.0869 24.6918 27.1904C25.2263 27.2817 25.7737 27.2817 26.3082 27.1904C26.9137 27.0869 27.4834 26.8283 28.3673 26.4271L34.75 23.5314V28.2708C34.75 28.685 35.0858 29.0208 35.5 29.0208C35.9142 29.0208 36.25 28.685 36.25 28.2708V22.814C36.5447 22.6457 36.8752 22.4176 37.0599 22.0566C37.3134 21.5614 37.3134 20.9802 37.0599 20.485C36.87 20.1139 36.5261 19.8832 36.2253 19.7137C35.9153 19.5389 35.4996 19.3503 35.0059 19.1263L28.3673 16.1145C27.4834 15.7133 26.9137 15.4547 26.3082 15.3512Z" fill="url(#paint1_radial_257_2301)"/>
<path d="M22.2396 27.4159L17.75 25.4716V28.5282C17.75 29.5079 18.1409 30.5468 19.0676 31.1567C20.2735 31.9503 22.464 33.0208 25.5 33.0208C28.5359 33.0208 30.7264 31.9503 31.9324 31.1567C32.8591 30.5468 33.25 29.5079 33.25 28.5282V25.4716L28.7604 27.4159C27.958 27.7638 27.2612 28.066 26.5039 28.1896C25.8397 28.2979 25.1603 28.2979 24.4961 28.1896C23.7388 28.066 23.042 27.7638 22.2396 27.4159Z" fill="url(#paint2_radial_257_2301)"/>
<defs>
<radialGradient id="paint0_radial_257_2301" cx="0" cy="0" r="1" gradientTransform="matrix(29.3979 36.5217 -36.5217 27.4644 3.90484 11.9783)" gradientUnits="userSpaceOnUse">
<stop stop-color="#3BBCFF"/>
<stop offset="1" stop-color="#936DFF"/>
</radialGradient>
<radialGradient id="paint1_radial_257_2301" cx="0" cy="0" r="1" gradientTransform="matrix(14.3927 13.4964 -17.8804 10.1493 15.417 19.5244)" gradientUnits="userSpaceOnUse">
<stop stop-color="#3BBCFF"/>
<stop offset="1" stop-color="#936DFF"/>
</radialGradient>
<radialGradient id="paint2_radial_257_2301" cx="0" cy="0" r="1" gradientTransform="matrix(14.3927 13.4964 -17.8804 10.1493 15.417 19.5244)" gradientUnits="userSpaceOnUse">
<stop stop-color="#3BBCFF"/>
<stop offset="1" stop-color="#936DFF"/>
</radialGradient>
</defs>
</svg>
