<svg width="49" height="49" viewBox="0 0 49 49" fill="none" xmlns="http://www.w3.org/2000/svg">
<path d="M0.5 24.5C0.5 11.2452 11.2452 0.5 24.5 0.5C37.7548 0.5 48.5 11.2452 48.5 24.5C48.5 37.7548 37.7548 48.5 24.5 48.5C11.2452 48.5 0.5 37.7548 0.5 24.5Z" fill="#EEF7FF"/>
<path d="M0.5 24.5C0.5 11.2452 11.2452 0.5 24.5 0.5C37.7548 0.5 48.5 11.2452 48.5 24.5C48.5 37.7548 37.7548 48.5 24.5 48.5C11.2452 48.5 0.5 37.7548 0.5 24.5Z" stroke="url(#paint0_radial_257_2296)"/>
<path d="M30.2238 14.8524C30.5449 14.5908 30.5931 14.1184 30.3315 13.7973C30.0698 13.4762 29.5974 13.4279 29.2763 13.6896L25.8153 16.5096C25.7306 16.5787 25.6489 16.6501 25.5703 16.7239C23.885 18.3054 23.6595 20.8856 24.9824 22.728L13.9697 33.7404C13.6768 34.0333 13.6768 34.5082 13.9697 34.8011C14.2626 35.094 14.7374 35.094 15.0303 34.8011L26.043 23.7886C27.8854 25.1116 30.4657 24.886 32.0472 23.2007C32.1209 23.1221 32.1924 23.0405 32.2614 22.9558L35.0817 19.4948C35.3433 19.1737 35.2951 18.7013 34.974 18.4396C34.6529 18.178 34.1805 18.2261 33.9188 18.5472L31.2877 21.6715C31.0934 21.9022 30.7433 21.9172 30.53 21.7039C30.3292 21.5031 30.3289 21.1775 30.5295 20.9764L33.0868 18.4117C33.3792 18.1183 33.3784 17.6435 33.085 17.3511C32.7916 17.0587 32.3167 17.0595 32.0243 17.3529L29.4088 19.976C29.2415 20.1437 28.97 20.1439 28.8025 19.9764C28.6354 19.8093 28.6352 19.5384 28.8021 19.371L31.4198 16.7457C31.7122 16.4523 31.7114 15.9774 31.418 15.6851C31.1246 15.3927 30.6497 15.3935 30.3573 15.6869L27.807 18.2446C27.604 18.4481 27.2744 18.4483 27.0712 18.2451C26.8557 18.0296 26.8709 17.676 27.1039 17.4797L30.2238 14.8524Z" fill="url(#paint1_radial_257_2296)"/>
<path d="M13.75 16.0324C13.75 14.7142 15.3438 14.054 16.2759 14.9861L23.0304 21.7406C23.171 21.8813 23.25 22.0721 23.25 22.271C23.25 22.4699 23.171 22.6606 23.0304 22.8013L19.5304 26.3013C19.3897 26.4419 19.199 26.521 19 26.521C18.8011 26.521 18.6104 26.4419 18.4697 26.3013L17.6739 25.5054C15.1615 22.993 13.75 19.5855 13.75 16.0324Z" fill="url(#paint2_radial_257_2296)"/>
<path d="M25.9697 25.7406C26.2626 25.4477 26.7375 25.4477 27.0304 25.7406L35.0303 33.7406C35.3232 34.0335 35.3232 34.5084 35.0303 34.8012C34.7374 35.0941 34.2626 35.0941 33.9697 34.8012L27.5 28.3316L25.2374 30.5941C24.554 31.2776 23.446 31.2776 22.7626 30.5941L22.4697 30.3013C22.1768 30.0084 22.1768 29.5335 22.4697 29.2406L25.9697 25.7406Z" fill="url(#paint3_radial_257_2296)"/>
<defs>
<radialGradient id="paint0_radial_257_2296" cx="0" cy="0" r="1" gradientTransform="matrix(29.3979 36.5217 -36.5217 27.4644 3.90484 11.9783)" gradientUnits="userSpaceOnUse">
<stop stop-color="#3BBCFF"/>
<stop offset="1" stop-color="#936DFF"/>
</radialGradient>
<radialGradient id="paint1_radial_257_2296" cx="0" cy="0" r="1" gradientTransform="matrix(13.168 16.3586 -16.3589 12.3017 15.2751 18.6623)" gradientUnits="userSpaceOnUse">
<stop stop-color="#3BBCFF"/>
<stop offset="1" stop-color="#936DFF"/>
</radialGradient>
<radialGradient id="paint2_radial_257_2296" cx="0" cy="0" r="1" gradientTransform="matrix(13.168 16.3586 -16.3589 12.3017 15.2751 18.6623)" gradientUnits="userSpaceOnUse">
<stop stop-color="#3BBCFF"/>
<stop offset="1" stop-color="#936DFF"/>
</radialGradient>
<radialGradient id="paint3_radial_257_2296" cx="0" cy="0" r="1" gradientTransform="matrix(13.168 16.3586 -16.3589 12.3017 15.2751 18.6623)" gradientUnits="userSpaceOnUse">
<stop stop-color="#3BBCFF"/>
<stop offset="1" stop-color="#936DFF"/>
</radialGradient>
</defs>
</svg>
