<svg width="49" height="49" viewBox="0 0 49 49" fill="none" xmlns="http://www.w3.org/2000/svg">
<path d="M0.5 24.5C0.5 11.2452 11.2452 0.5 24.5 0.5C37.7548 0.5 48.5 11.2452 48.5 24.5C48.5 37.7548 37.7548 48.5 24.5 48.5C11.2452 48.5 0.5 37.7548 0.5 24.5Z" fill="#EEF7FF"/>
<path d="M0.5 24.5C0.5 11.2452 11.2452 0.5 24.5 0.5C37.7548 0.5 48.5 11.2452 48.5 24.5C48.5 37.7548 37.7548 48.5 24.5 48.5C11.2452 48.5 0.5 37.7548 0.5 24.5Z" stroke="url(#paint0_radial_257_2306)"/>
<path d="M20.3933 14.771C16.5271 14.771 14 18.0615 14 21.7454C14 25.4674 16.2486 28.4738 18.6044 30.5782C20.9609 32.6832 23.5191 33.9711 24.3419 34.2453L24.5 34.298L24.6581 34.2453C25.4809 33.9711 28.0391 32.6832 30.3956 30.5782C32.7514 28.4738 35 25.4674 35 21.7454C35 18.0615 32.4729 14.771 28.6067 14.771C26.6987 14.771 25.3582 15.6644 24.5 16.5305C23.6418 15.6644 22.3013 14.771 20.3933 14.771Z" fill="url(#paint1_radial_257_2306)"/>
<defs>
<radialGradient id="paint0_radial_257_2306" cx="0" cy="0" r="1" gradientTransform="matrix(29.3979 36.5217 -36.5217 27.4644 3.90484 11.9783)" gradientUnits="userSpaceOnUse">
<stop stop-color="#3BBCFF"/>
<stop offset="1" stop-color="#936DFF"/>
</radialGradient>
<radialGradient id="paint1_radial_257_2306" cx="0" cy="0" r="1" gradientTransform="matrix(12.8616 14.8575 -15.9783 11.1729 15.4896 19.4405)" gradientUnits="userSpaceOnUse">
<stop stop-color="#3BBCFF"/>
<stop offset="1" stop-color="#936DFF"/>
</radialGradient>
</defs>
</svg>
