<svg width="49" height="49" viewBox="0 0 49 49" fill="none" xmlns="http://www.w3.org/2000/svg">
<path d="M0.5 24.5C0.5 11.2452 11.2452 0.5 24.5 0.5C37.7548 0.5 48.5 11.2452 48.5 24.5C48.5 37.7548 37.7548 48.5 24.5 48.5C11.2452 48.5 0.5 37.7548 0.5 24.5Z" fill="#EEF7FF"/>
<path d="M0.5 24.5C0.5 11.2452 11.2452 0.5 24.5 0.5C37.7548 0.5 48.5 11.2452 48.5 24.5C48.5 37.7548 37.7548 48.5 24.5 48.5C11.2452 48.5 0.5 37.7548 0.5 24.5Z" stroke="url(#paint0_radial_257_2290)"/>
<path d="M33.5 32.5H15.5V16.5H33.5V32.5Z" stroke="#E5E7EB"/>
<path fill-rule="evenodd" clip-rule="evenodd" d="M18.2774 13.5211H30.7226C31.4003 13.5205 31.9301 13.52 32.397 13.6936C32.9285 13.8913 33.3859 14.2484 33.7066 14.7161C33.9882 15.1269 34.1162 15.641 34.28 16.2987L34.9851 19.1191C35.161 19.8229 35.25 20.5457 35.25 21.2711C35.25 22.5092 34.4338 23.7315 33.25 24.2552V33.5211H34.5C34.9142 33.5211 35.25 33.8569 35.25 34.2711C35.25 34.6853 34.9142 35.0211 34.5 35.0211H32.5175C32.5117 35.0213 32.5059 35.0213 32.5 35.0213H16.5C16.4941 35.0213 16.4883 35.0213 16.4824 35.0211H14.5C14.0858 35.0211 13.75 34.6853 13.75 34.2711C13.75 33.8569 14.0858 33.5211 14.5 33.5211H15.75V24.2552C14.5662 23.7315 13.75 22.5092 13.75 21.2711C13.75 20.5457 13.839 19.8229 14.0149 19.1191L14.72 16.2987C14.8838 15.641 15.0118 15.1269 15.2934 14.7161C15.6141 14.2484 16.0715 13.8913 16.603 13.6936C17.0699 13.52 17.5997 13.5205 18.2774 13.5211ZM21.25 33.5211H17.25V24.5127C18.1032 24.4551 18.9309 24.1058 19.5 23.5373C20.1246 24.1612 21.0606 24.5211 22 24.5211C22.9394 24.5211 23.8754 24.1612 24.5 23.5373C25.1246 24.1612 26.0606 24.5211 27 24.5211C27.9394 24.5211 28.8754 24.1612 29.5 23.5373C30.0691 24.1058 30.8968 24.4551 31.75 24.5127V33.5211H27.75L27.75 28.9472C27.75 28.7579 27.75 28.5736 27.7373 28.4174C27.7233 28.246 27.6902 28.0437 27.5865 27.8401C27.4427 27.5579 27.2132 27.3284 26.931 27.1846C26.7274 27.0809 26.5251 27.0478 26.3537 27.0338C26.1976 27.0211 26.0132 27.0211 25.8239 27.0211H23.1761C22.9868 27.0211 22.8024 27.0211 22.6463 27.0338C22.4749 27.0478 22.2726 27.0809 22.069 27.1846C21.7868 27.3284 21.5573 27.5579 21.4135 27.8401C21.3098 28.0437 21.2767 28.246 21.2627 28.4174C21.25 28.5736 21.25 28.7579 21.25 28.9472L21.25 33.5211Z" fill="url(#paint1_radial_257_2290)"/>
<defs>
<radialGradient id="paint0_radial_257_2290" cx="0" cy="0" r="1" gradientTransform="matrix(29.3979 36.5217 -36.5217 27.4644 3.90484 11.9783)" gradientUnits="userSpaceOnUse">
<stop stop-color="#3BBCFF"/>
<stop offset="1" stop-color="#936DFF"/>
</radialGradient>
<radialGradient id="paint1_radial_257_2290" cx="0" cy="0" r="1" gradientTransform="matrix(13.1678 16.3589 -16.3587 12.3019 15.2751 18.6624)" gradientUnits="userSpaceOnUse">
<stop stop-color="#3BBCFF"/>
<stop offset="1" stop-color="#936DFF"/>
</radialGradient>
</defs>
</svg>
