<svg width="20" height="20" viewBox="0 0 20 20" fill="none" xmlns="http://www.w3.org/2000/svg">
<path d="M10.0001 0.833252C10.4603 0.833252 10.8334 1.20635 10.8334 1.66659V2.95125C11.3815 3.00161 11.8824 3.11173 12.3906 3.31329C13.1248 3.60447 13.8234 4.06722 14.6698 4.7081C15.0367 4.98593 15.1089 5.5086 14.8311 5.87552C14.5533 6.24243 14.0306 6.31465 13.6637 6.03682C12.8434 5.41568 12.292 5.06715 11.7762 4.86255C11.2798 4.66567 10.7674 4.58323 10.0001 4.58323C8.8684 4.58323 8.01478 4.84988 7.46802 5.24587C6.94622 5.62378 6.66671 6.14041 6.66671 6.80273C6.66671 7.6216 7.05941 8.10636 7.69876 8.46425C8.39078 8.85163 9.29843 9.03814 10.1371 9.17791C10.9651 9.31592 12.1408 9.53565 13.1154 10.0812C14.1428 10.6563 15.0001 11.6312 15.0001 13.1971C15.0001 14.4157 14.4462 15.4255 13.5097 16.1038C12.7875 16.6268 11.8657 16.9359 10.8334 17.0417V18.3333C10.8334 18.7935 10.4603 19.1666 10.0001 19.1666C9.53982 19.1666 9.16672 18.7935 9.16672 18.3333V17.0485C8.61858 16.9982 8.11765 16.888 7.60946 16.6865C6.87532 16.3953 6.17668 15.9325 5.33032 15.2916C4.9634 15.0138 4.89119 14.4911 5.16902 14.1242C5.44685 13.7573 5.96952 13.6851 6.33644 13.9629C7.15675 14.5841 7.70811 14.9326 8.22397 15.1372C8.72036 15.3341 9.23271 15.4166 10.0001 15.4166C11.1317 15.4166 11.9853 15.1499 12.5321 14.7539C13.0539 14.376 13.3334 13.8594 13.3334 13.1971C13.3334 12.3782 12.9407 11.8935 12.3014 11.5356C11.6093 11.1482 10.7017 10.9617 9.86306 10.8219C9.03501 10.6839 7.85932 10.4642 6.88467 9.91857C5.85736 9.3435 5.00005 8.36856 5.00005 6.80273C5.00005 5.58409 5.55388 4.5743 6.49041 3.89603C7.21258 3.37301 8.13444 3.06395 9.16672 2.9581V1.66659C9.16672 1.20635 9.53982 0.833252 10.0001 0.833252Z" fill="#1B263B"/>
</svg>
