<svg width="44" height="44" viewBox="0 0 44 44" fill="none" xmlns="http://www.w3.org/2000/svg">
<g clip-path="url(#clip0_257_2442)">
<path d="M37.6711 25.4157C37.6711 17.0682 32.7657 9.15093 23.485 2.52265C23.1764 2.30116 22.7915 2.22128 22.4157 2.29753C22.0435 2.37378 21.7204 2.60434 21.5261 2.93113L17.0655 10.3637C16.1941 9.49768 14.9759 8.62444 13.6161 8.62444C13.2004 8.62444 12.8064 8.81507 12.5486 9.14185C8.13705 14.7172 5.90039 20.1926 5.90039 25.4157C5.90039 34.769 12.4325 41.3011 21.7858 41.3011H21.7912C31.1409 41.2975 37.6711 34.7672 37.6711 25.4157ZM21.7876 38.5779C2.18535 38.5779 41.4091 38.5553 21.7876 38.5779V38.5779ZM29.5614 36.3067C25.223 37.5326 21.5261 38.5696 14.0119 36.3085C10.6587 34.0211 8.62178 30.1614 8.62178 25.4157C8.62178 21.0296 10.4808 16.3565 14.1481 11.5183C14.8252 11.8905 15.6622 12.7946 16.1142 13.4645C16.3738 13.8512 16.7841 14.0817 17.2798 14.0672C17.7445 14.0563 18.173 13.8076 18.4126 13.4082L23.0893 5.61439C30.9575 11.5764 34.9461 18.2337 34.9461 25.4175C34.9461 30.1614 32.9109 34.0229 29.5596 36.3085L29.5614 36.3067Z" fill="url(#paint0_radial_257_2442)"/>
<path d="M42.5498 15.6071L45.3584 15.6081L43.3145 17.5338L41.7402 19.0172L39.6309 21.0045C38.4508 22.1165 36.8896 22.736 35.2676 22.736H21.041L20.9941 22.8649H36.4639L34.4199 24.7907L30.7363 28.2614C29.5564 29.3732 27.9958 29.9927 26.374 29.9928H18.3701L14.6963 39.4684L14.0938 41.0231L12.8877 39.8717L7.82422 35.0407L7.29297 34.5338L7.54883 33.8463L13.7051 17.2907C14.0774 16.2788 15.0416 15.6071 16.1191 15.6071H42.5498Z" fill="url(#paint1_radial_257_2442)" stroke="#F2F3F7" stroke-width="2.22966"/>
</g>
<defs>
<radialGradient id="paint0_radial_257_2442" cx="0" cy="0" r="1" gradientTransform="matrix(13.7564 27.6747 -22.5264 16.0081 14.6892 12.8432)" gradientUnits="userSpaceOnUse">
<stop stop-color="#FF2D92"/>
<stop offset="0.713519" stop-color="#F53F43"/>
<stop offset="1" stop-color="#FD832C"/>
</radialGradient>
<radialGradient id="paint1_radial_257_2442" cx="0" cy="0" r="1" gradientTransform="matrix(14.7025 15.8419 -24.0757 9.16355 17.987 22.7751)" gradientUnits="userSpaceOnUse">
<stop stop-color="#FF2D92"/>
<stop offset="0.713519" stop-color="#F53F43"/>
<stop offset="1" stop-color="#FD832C"/>
</radialGradient>
<clipPath id="clip0_257_2442">
<rect width="43.5713" height="43.5713" fill="white"/>
</clipPath>
</defs>
</svg>
