<svg width="49" height="49" viewBox="0 0 49 49" fill="none" xmlns="http://www.w3.org/2000/svg">
<path d="M0.5 12.5C0.5 5.87258 5.87258 0.5 12.5 0.5H36.5C43.1274 0.5 48.5 5.87258 48.5 12.5V36.5C48.5 43.1274 43.1274 48.5 36.5 48.5H12.5C5.87258 48.5 0.5 43.1274 0.5 36.5V12.5Z" fill="url(#paint0_linear_257_1991)"/>
<path d="M0.5 12.5C0.5 5.87258 5.87258 0.5 12.5 0.5H36.5C43.1274 0.5 48.5 5.87258 48.5 12.5V36.5C48.5 43.1274 43.1274 48.5 36.5 48.5H12.5C5.87258 48.5 0.5 43.1274 0.5 36.5V12.5Z" stroke="#FCFCFC"/>
<path fill-rule="evenodd" clip-rule="evenodd" d="M12.0938 24.3272C12.0938 18.3617 16.9516 13.521 22.8438 13.521C28.6538 13.521 33.5938 17.7808 33.5938 23.271C33.5938 25.5854 32.3843 27.058 30.9429 27.9155C29.5391 28.7508 27.9008 29.021 26.8545 29.021H25.8438C24.7296 29.021 24.1472 29.3724 23.9023 29.7354C23.6667 30.0846 23.5889 30.6777 24.0153 31.5354C24.3078 32.1237 24.4431 32.7021 24.3591 33.2438C24.2716 33.8075 23.9606 34.2393 23.5441 34.5283C22.7668 35.0676 21.6463 35.1102 20.6915 34.9123C15.8175 33.902 12.0938 29.548 12.0938 24.3272ZM21.3438 18.271C21.3438 17.7187 21.7915 17.271 22.3438 17.271C22.896 17.271 23.3439 17.7187 23.3439 18.271C23.3439 18.8233 22.896 19.271 22.3438 19.271C21.7915 19.271 21.3438 18.8233 21.3438 18.271ZM25.8438 20.271C25.8438 19.7187 26.2915 19.271 26.8438 19.271C27.396 19.271 27.8439 19.7187 27.8439 20.271C27.8439 20.8233 27.396 21.271 26.8438 21.271C26.2915 21.271 25.8438 20.8233 25.8438 20.271ZM16.8438 21.271C16.8438 20.7187 17.2915 20.271 17.8438 20.271C18.396 20.271 18.8439 20.7187 18.8439 21.271C18.8439 21.8233 18.3961 22.271 17.8439 22.271C17.2916 22.271 16.8438 21.8233 16.8438 21.271ZM16.8438 26.271C16.8438 25.7187 17.2915 25.271 17.8438 25.271C18.396 25.271 18.8439 25.7187 18.8439 26.271C18.8439 26.8233 18.396 27.271 17.8438 27.271C17.2915 27.271 16.8438 26.8233 16.8438 26.271Z" fill="white" fill-opacity="0.6"/>
<defs>
<linearGradient id="paint0_linear_257_1991" x1="4.06934" y1="-75.8822" x2="64.243" y2="-71.4859" gradientUnits="userSpaceOnUse">
<stop stop-color="#3BBCFF"/>
<stop offset="1" stop-color="#936DFF"/>
</linearGradient>
</defs>
</svg>
