<svg width="49" height="49" viewBox="0 0 49 49" fill="none" xmlns="http://www.w3.org/2000/svg">
<path d="M0.5 12.5C0.5 5.87258 5.87258 0.5 12.5 0.5H36.5C43.1274 0.5 48.5 5.87258 48.5 12.5V36.5C48.5 43.1274 43.1274 48.5 36.5 48.5H12.5C5.87258 48.5 0.5 43.1274 0.5 36.5V12.5Z" fill="url(#paint0_linear_257_1950)"/>
<path d="M0.5 12.5C0.5 5.87258 5.87258 0.5 12.5 0.5H36.5C43.1274 0.5 48.5 5.87258 48.5 12.5V36.5C48.5 43.1274 43.1274 48.5 36.5 48.5H12.5C5.87258 48.5 0.5 43.1274 0.5 36.5V12.5Z" stroke="#FCFCFC"/>
<path d="M20.867 13.75H28.133C29.2251 13.75 30.0906 13.75 30.7883 13.807C31.5017 13.8653 32.1053 13.9869 32.6565 14.2677C33.5502 14.7231 34.2769 15.4498 34.7323 16.3435C35.0131 16.8947 35.1347 17.4983 35.193 18.2117C35.25 18.9094 35.25 19.7748 35.25 20.867V28.133C35.25 29.2252 35.25 30.0906 35.193 30.7883C35.1347 31.5017 35.0131 32.1053 34.7323 32.6565C34.2769 33.5502 33.5502 34.2769 32.6565 34.7323C32.1053 35.0131 31.5017 35.1347 30.7883 35.193C30.0906 35.25 29.2252 35.25 28.133 35.25H20.867C19.7748 35.25 18.9094 35.25 18.2117 35.193C17.4983 35.1347 16.8947 35.0131 16.3435 34.7323C15.4498 34.2769 14.7231 33.5502 14.2677 32.6565C14.2028 32.5291 14.1464 32.3989 14.0974 32.2653C14.0701 32.191 14.0565 32.1539 14.056 32.1109C14.0556 32.0748 14.0648 32.0333 14.0803 32.0008C14.0988 31.9619 14.1295 31.9312 14.1909 31.8698L20.5 25.5607L22.6161 27.6768C23.1043 28.1649 23.8957 28.1649 24.3839 27.6768L28.75 23.3107V25.5C28.75 25.9142 29.0858 26.25 29.5 26.25C29.9142 26.25 30.25 25.9142 30.25 25.5V21.5C30.25 21.0858 29.9142 20.75 29.5 20.75H25.5C25.0858 20.75 24.75 21.0858 24.75 21.5C24.75 21.9142 25.0858 22.25 25.5 22.25H27.6893L23.5 26.4393L21.3839 24.3232C20.8957 23.8351 20.1043 23.8351 19.6161 24.3232L14.1605 29.7789C14.0387 29.9007 13.9778 29.9615 13.9231 29.9661C13.876 29.9701 13.8287 29.9509 13.7976 29.9154C13.7615 29.874 13.7601 29.7887 13.7573 29.618C13.75 29.1755 13.75 28.683 13.75 28.133V20.867C13.75 19.7749 13.75 18.9094 13.807 18.2117C13.8653 17.4983 13.9869 16.8947 14.2677 16.3435C14.7231 15.4498 15.4498 14.7231 16.3435 14.2677C16.8947 13.9869 17.4983 13.8653 18.2117 13.807C18.9094 13.75 19.7749 13.75 20.867 13.75Z" fill="white" fill-opacity="0.6"/>
<defs>
<linearGradient id="paint0_linear_257_1950" x1="4.06934" y1="-75.8822" x2="64.243" y2="-71.4859" gradientUnits="userSpaceOnUse">
<stop stop-color="#3BBCFF"/>
<stop offset="1" stop-color="#936DFF"/>
</linearGradient>
</defs>
</svg>
