<svg width="48" height="48" viewBox="0 0 48 48" fill="none" xmlns="http://www.w3.org/2000/svg">
<path d="M12 0.5H36C42.3513 0.5 47.5 5.64873 47.5 12V36C47.5 42.3513 42.3513 47.5 36 47.5H12C5.64873 47.5 0.5 42.3513 0.5 36V12C0.5 5.64873 5.64873 0.5 12 0.5Z" fill="url(#paint0_linear_257_1874)"/>
<path d="M12 0.5H36C42.3513 0.5 47.5 5.64873 47.5 12V36C47.5 42.3513 42.3513 47.5 36 47.5H12C5.64873 47.5 0.5 42.3513 0.5 36V12C0.5 5.64873 5.64873 0.5 12 0.5Z" stroke="#FCFCFC"/>
<path d="M24 14.25C21.1005 14.25 18.75 16.6005 18.75 19.5C18.75 22.3995 21.1005 24.75 24 24.75C26.8995 24.75 29.25 22.3995 29.25 19.5C29.25 16.6005 26.8995 14.25 24 14.25Z" fill="white" fill-opacity="0.6"/>
<path d="M24.0005 26.25C19.7345 26.25 15.8243 28.927 15.2575 32.8939C15.2268 33.1092 15.291 33.3272 15.4334 33.4914C15.5759 33.6557 15.7826 33.75 16 33.75H32C32.2174 33.75 32.4241 33.6557 32.5666 33.4914C32.709 33.3272 32.7732 33.1092 32.7425 32.8939C32.1758 28.9271 28.2666 26.25 24.0005 26.25Z" fill="white" fill-opacity="0.6"/>
<defs>
<linearGradient id="paint0_linear_257_1874" x1="3.56934" y1="-76.3822" x2="63.743" y2="-71.9859" gradientUnits="userSpaceOnUse">
<stop stop-color="#3BBCFF"/>
<stop offset="1" stop-color="#936DFF"/>
</linearGradient>
</defs>
</svg>
