<svg width="49" height="49" viewBox="0 0 49 49" fill="none" xmlns="http://www.w3.org/2000/svg">
<path d="M0.5 12.5C0.5 5.87258 5.87258 0.5 12.5 0.5H36.5C43.1274 0.5 48.5 5.87258 48.5 12.5V36.5C48.5 43.1274 43.1274 48.5 36.5 48.5H12.5C5.87258 48.5 0.5 43.1274 0.5 36.5V12.5Z" fill="url(#paint0_linear_257_1917)"/>
<path d="M0.5 12.5C0.5 5.87258 5.87258 0.5 12.5 0.5H36.5C43.1274 0.5 48.5 5.87258 48.5 12.5V36.5C48.5 43.1274 43.1274 48.5 36.5 48.5H12.5C5.87258 48.5 0.5 43.1274 0.5 36.5V12.5Z" stroke="#FCFCFC"/>
<path fill-rule="evenodd" clip-rule="evenodd" d="M28.6225 23.7121C28.48 23.6681 28.337 23.6304 28.1926 23.5997C26.679 23.2847 25.0082 23.9313 23.9672 25.3471C22.7703 26.9749 22.7779 29.5808 24.1507 31.4927C24.5666 32.0714 25.2279 32.8076 26.152 33.697C26.3661 33.903 26.4384 34.216 26.3363 34.4951C26.2342 34.7741 25.9771 34.9666 25.6806 34.9858C25.1388 35.021 24.4778 35.021 23.6684 35.021H20.0114C19.1287 35.021 18.4207 35.021 17.8481 34.9742C17.2598 34.9262 16.7487 34.825 16.2778 34.585C15.5251 34.2015 14.9132 33.5896 14.5297 32.837C14.2898 32.366 14.1886 31.855 14.1405 31.2667C14.0937 30.6941 14.0937 29.986 14.0938 29.1034V19.4386C14.0937 18.556 14.0937 17.8479 14.1405 17.2753C14.1886 16.687 14.2898 16.176 14.5297 15.705C14.9132 14.9524 15.5251 14.3405 16.2778 13.957C16.7487 13.717 17.2598 13.6158 17.8481 13.5678C18.4207 13.521 19.1287 13.521 20.0114 13.521H23.6761C24.5588 13.521 25.2668 13.521 25.8394 13.5678C26.4277 13.6158 26.9388 13.717 27.4097 13.957C28.1624 14.3405 28.7743 14.9524 29.1578 15.705C29.3977 16.176 29.4989 16.687 29.547 17.2753C29.5938 17.8479 29.5938 18.556 29.5938 19.4385V22.9955C29.5938 23.2336 29.4807 23.4576 29.2891 23.599C29.0974 23.7404 28.8501 23.7823 28.6225 23.7121ZM19.5938 17.271C19.5938 16.8568 19.9295 16.521 20.3438 16.521H23.3438C23.758 16.521 24.0938 16.8568 24.0938 17.271C24.0938 17.6852 23.758 18.021 23.3438 18.021H20.3438C19.9295 18.021 19.5938 17.6852 19.5938 17.271ZM20.8438 30.771C20.8438 30.2187 21.2915 29.771 21.8438 29.771C22.396 29.771 22.8439 30.2187 22.8439 30.771C22.8439 31.3233 22.396 31.771 21.8438 31.771C21.2915 31.771 20.8438 31.3233 20.8438 30.771Z" fill="white" fill-opacity="0.6"/>
<path d="M34.7078 26.0802C33.8928 24.9759 32.6908 24.6266 31.7459 24.8227L31.7439 24.8231C31.0097 24.9786 30.3581 25.3264 29.8438 25.8717C29.3295 25.3264 28.6778 24.9786 27.9436 24.8231L27.9417 24.8227C26.9968 24.6266 25.7947 24.9759 24.9797 26.0802C24.1394 27.2188 24.0624 29.1802 25.1699 30.7173C25.9417 31.7885 27.5103 33.2253 28.5178 34.1059L28.5889 34.1686C28.8378 34.3883 29.0954 34.6158 29.4188 34.7114C29.6879 34.7909 29.9997 34.7909 30.2687 34.7114C30.5921 34.6158 30.8498 34.3883 31.0986 34.1685L31.1697 34.1059C32.1772 33.2253 33.7458 31.7884 34.5176 30.7173C35.6253 29.1802 35.5481 27.2187 34.7078 26.0802Z" fill="white" fill-opacity="0.6"/>
<defs>
<linearGradient id="paint0_linear_257_1917" x1="4.06934" y1="-75.8822" x2="64.243" y2="-71.4859" gradientUnits="userSpaceOnUse">
<stop stop-color="#3BBCFF"/>
<stop offset="1" stop-color="#936DFF"/>
</linearGradient>
</defs>
</svg>
