<svg width="49" height="49" viewBox="0 0 49 49" fill="none" xmlns="http://www.w3.org/2000/svg">
<path d="M0.5 12.5C0.5 5.87258 5.87258 0.5 12.5 0.5H36.5C43.1274 0.5 48.5 5.87258 48.5 12.5V36.5C48.5 43.1274 43.1274 48.5 36.5 48.5H12.5C5.87258 48.5 0.5 43.1274 0.5 36.5V12.5Z" fill="url(#paint0_linear_257_1968)"/>
<path d="M0.5 12.5C0.5 5.87258 5.87258 0.5 12.5 0.5H36.5C43.1274 0.5 48.5 5.87258 48.5 12.5V36.5C48.5 43.1274 43.1274 48.5 36.5 48.5H12.5C5.87258 48.5 0.5 43.1274 0.5 36.5V12.5Z" stroke="#FCFCFC"/>
<g clip-path="url(#clip0_257_1968)">
<path d="M26.5929 14.2351C25.8407 14.2351 25.1585 14.6764 24.8501 15.3625L21.5705 22.6587C21.0712 23.7695 21.8838 25.0255 23.1015 25.0255H26.1927L23.8347 32.7349C23.4573 33.9689 25.0106 34.8619 25.8871 33.9149L35.4734 23.5572C36.4681 22.4825 35.7058 20.7384 34.2414 20.7384H30.7447L32.9487 16.3282C33.4294 15.3665 32.73 14.2351 31.6549 14.2351H26.5929Z" fill="white" fill-opacity="0.6"/>
<path d="M20.1719 19.021H16.1719C15.7577 19.021 15.4219 18.6852 15.4219 18.271C15.4219 17.8568 15.7577 17.521 16.1719 17.521H20.1719C20.5861 17.521 20.9219 17.8568 20.9219 18.271C20.9219 18.6852 20.5861 19.021 20.1719 19.021Z" fill="white" fill-opacity="0.6"/>
<path d="M12.4219 24.271C12.4219 23.8568 12.7577 23.521 13.1719 23.521H17.1719C17.5861 23.521 17.9219 23.8568 17.9219 24.271C17.9219 24.6852 17.5861 25.021 17.1719 25.021H13.1719C12.7577 25.021 12.4219 24.6852 12.4219 24.271Z" fill="white" fill-opacity="0.6"/>
<path d="M16.1719 31.021H20.1719C20.5861 31.021 20.9219 30.6852 20.9219 30.271C20.9219 29.8568 20.5861 29.521 20.1719 29.521H16.1719C15.7577 29.521 15.4219 29.8568 15.4219 30.271C15.4219 30.6852 15.7577 31.021 16.1719 31.021Z" fill="white" fill-opacity="0.6"/>
</g>
<defs>
<linearGradient id="paint0_linear_257_1968" x1="4.06934" y1="-75.8822" x2="64.243" y2="-71.4859" gradientUnits="userSpaceOnUse">
<stop stop-color="#3BBCFF"/>
<stop offset="1" stop-color="#936DFF"/>
</linearGradient>
<clipPath id="clip0_257_1968">
<rect width="24" height="24" fill="white" transform="translate(12.1719 12.271)"/>
</clipPath>
</defs>
</svg>
