<svg width="49" height="49" viewBox="0 0 49 49" fill="none" xmlns="http://www.w3.org/2000/svg">
<path d="M0.5 12.5C0.5 5.87258 5.87258 0.5 12.5 0.5H36.5C43.1274 0.5 48.5 5.87258 48.5 12.5V36.5C48.5 43.1274 43.1274 48.5 36.5 48.5H12.5C5.87258 48.5 0.5 43.1274 0.5 36.5V12.5Z" fill="url(#paint0_linear_257_1895)"/>
<path d="M0.5 12.5C0.5 5.87258 5.87258 0.5 12.5 0.5H36.5C43.1274 0.5 48.5 5.87258 48.5 12.5V36.5C48.5 43.1274 43.1274 48.5 36.5 48.5H12.5C5.87258 48.5 0.5 43.1274 0.5 36.5V12.5Z" stroke="#FCFCFC"/>
<path d="M30.8528 14.6539C30.3005 14.4744 29.7055 14.4744 29.1532 14.6539C28.7933 14.7708 28.4937 14.9755 28.2032 15.2221C27.9247 15.4585 27.6097 15.7735 27.2322 16.151L26.2385 17.1447C26.0405 17.3427 25.9415 17.4417 25.9044 17.5558C25.8718 17.6563 25.8718 17.7644 25.9044 17.8648C25.9415 17.979 26.0405 18.078 26.2385 18.276L31.1678 23.2053C31.3658 23.4033 31.4648 23.5023 31.579 23.5394C31.6794 23.5721 31.7876 23.5721 31.888 23.5394C32.0022 23.5023 32.1012 23.4033 32.2992 23.2053L33.2921 22.2124C33.6698 21.8347 33.9851 21.5195 34.2216 21.2409C34.4683 20.9503 34.673 20.6507 34.79 20.2907C34.9694 19.7383 34.9694 19.1434 34.79 18.5911C34.673 18.2311 34.4683 17.9314 34.2216 17.6409C33.9851 17.3623 33.6698 17.047 33.2921 16.6693L32.7745 16.1517C32.3968 15.774 32.0816 15.4588 31.803 15.2223C31.5124 14.9756 31.2128 14.7709 30.8528 14.6539Z" fill="white" fill-opacity="0.6"/>
<path d="M25.1779 19.3367L30.1072 24.266C30.3052 24.464 30.4042 24.563 30.4413 24.6772C30.4739 24.7776 30.4739 24.8857 30.4413 24.9862C30.4042 25.1003 30.3052 25.1993 30.1072 25.3973L21.3037 34.2008C21.1449 34.3599 21.0047 34.5002 20.8405 34.6149C20.6959 34.7157 20.5401 34.7993 20.3761 34.8638C20.1896 34.9371 19.9952 34.9761 19.7748 35.0203L15.335 35.9139C15.1602 35.9491 14.9828 35.9848 14.8321 36.0012C14.6726 36.0185 14.438 36.0284 14.1942 35.9277C13.887 35.8008 13.6431 35.5568 13.5162 35.2497C13.4154 35.0059 13.4254 34.7712 13.4427 34.6117C13.459 34.461 13.4947 34.2837 13.5299 34.1089L14.4235 29.6691C14.4677 29.4487 14.5068 29.2542 14.5801 29.0678C14.6446 28.9038 14.7281 28.7479 14.829 28.6034C14.9436 28.4391 15.0827 28.3002 15.2401 28.143L24.0465 19.3367C24.2445 19.1387 24.3435 19.0397 24.4577 19.0026C24.5581 18.9699 24.6663 18.9699 24.7667 19.0026C24.8809 19.0397 24.9799 19.1387 25.1779 19.3367Z" fill="white" fill-opacity="0.6"/>
<path d="M25.1728 34.5209C24.7586 34.5209 24.4228 34.8567 24.4228 35.2709C24.4228 35.6851 24.7586 36.0209 25.1728 36.0209H34.1728C34.587 36.0209 34.9228 35.6851 34.9228 35.2709C34.9228 34.8567 34.587 34.5209 34.1728 34.5209H25.1728Z" fill="white" fill-opacity="0.6"/>
<defs>
<linearGradient id="paint0_linear_257_1895" x1="4.06934" y1="-75.8822" x2="64.243" y2="-71.4859" gradientUnits="userSpaceOnUse">
<stop stop-color="#3BBCFF"/>
<stop offset="1" stop-color="#936DFF"/>
</linearGradient>
</defs>
</svg>
